<svg width="1366" height="1024" viewBox="0 0 1366 1024" fill="none" xmlns="http://www.w3.org/2000/svg">
<g clip-path="url(#clip0_275_900)">
<g clip-path="url(#clip1_275_900)">
<g clip-path="url(#clip2_275_900)">
<rect width="1366" height="1024" fill="#CCE5FF"/>
<ellipse cx="680" cy="1023.5" rx="597" ry="231.5" fill="#5EB04F"/>
<ellipse cx="309" cy="1087.5" rx="597" ry="231.5" fill="#9ED095"/>
<ellipse cx="1277" cy="1076.5" rx="597" ry="231.5" fill="#7EC072"/>
<circle cx="277" cy="677" r="120" fill="#7EC072"/>
<rect x="269.626" y="681.19" width="8.04469" height="235.81" fill="#824A4A"/>
<rect x="233.425" y="669.12" width="6.53678" height="66.8715" transform="rotate(-37.9478 233.425 669.12)" fill="#824A4A"/>
<rect x="300.038" y="681.19" width="9.85488" height="45.8224" transform="rotate(41.582 300.038 681.19)" fill="#824A4A"/>
<path d="M868.335 510.493C874.912 493.406 899.088 493.406 905.665 510.493L980.46 704.816C985.502 717.917 975.832 732 961.795 732H812.205C798.168 732 788.498 717.917 793.54 704.816L868.335 510.493Z" fill="#7EC072"/>
<rect x="881.292" y="665.761" width="5.33778" height="156.464" fill="#824A4A"/>
<rect x="855" y="661.667" width="4.33726" height="44.3703" transform="rotate(-37.9478 855 661.667)" fill="#824A4A"/>
<rect x="914.393" y="667.626" width="6.53887" height="50.4988" transform="rotate(41.582 914.393 667.626)" fill="#824A4A"/>
<path d="M370.335 934.36H265.284C246.146 934.36 243.548 916.014 254.834 910.28C257.624 891.167 275.386 894.903 281.008 898.556C289.326 876.232 304.509 882.204 312.076 887.98C323.742 866.702 343.313 875.154 349.23 887.98C364.178 885.08 375.931 889.56 370.335 908.6C387.685 909.72 385.446 934.36 370.335 934.36Z" fill="#5EB04F"/>
<ellipse cx="3" cy="5" rx="3" ry="5" transform="matrix(0.382683 -0.923879 0.926096 0.377287 351.284 888.152)" fill="#FFDE66"/>
<ellipse cx="3" cy="5" rx="3" ry="5" transform="matrix(0.382683 -0.923879 0.926096 0.377287 339.524 883.281)" fill="#FFDE66"/>
<ellipse cx="3" cy="5" rx="3" ry="5" transform="matrix(0.923879 0.382683 -0.377287 0.926096 347.84 884.986)" fill="#FFDE66"/>
<ellipse cx="3" cy="5" rx="3" ry="5" transform="matrix(0.923879 0.382683 -0.377287 0.926096 352.711 873.227)" fill="#FFDE66"/>
<ellipse cx="3" cy="5" rx="3" ry="5" transform="matrix(0.92388 -0.382683 0.382552 0.923934 343.987 875.758)" fill="#FFF9E6"/>
<ellipse cx="3" cy="5" rx="3" ry="5" transform="matrix(-0.382683 -0.92388 0.923934 -0.382552 353.039 887.163)" fill="#FFF9E6"/>
<ellipse cx="3" cy="5" rx="3" ry="5" transform="matrix(-0.382683 -0.92388 0.923934 -0.382552 341.952 891.755)" fill="#FFF9E6"/>
<ellipse cx="3" cy="5" rx="3" ry="5" transform="matrix(0.92388 -0.382683 0.382552 0.923934 348.579 886.845)" fill="#FFF9E6"/>
<circle cx="350.966" cy="884.774" r="4" transform="rotate(-22.5 350.966 884.774)" fill="#FFC800"/>
<ellipse cx="2" cy="3.33333" rx="2" ry="3.33333" transform="matrix(0.382683 -0.92388 0.926097 0.377287 277.523 902.564)" fill="#FFDE66"/>
<ellipse cx="2" cy="3.33333" rx="2" ry="3.33333" transform="matrix(0.382683 -0.92388 0.926097 0.377287 269.684 899.317)" fill="#FFDE66"/>
<ellipse cx="2" cy="3.33333" rx="2" ry="3.33333" transform="matrix(0.92388 0.382683 -0.377287 0.926097 275.228 900.453)" fill="#FFDE66"/>
<ellipse cx="2" cy="3.33333" rx="2" ry="3.33333" transform="matrix(0.92388 0.382683 -0.377287 0.926097 278.475 892.614)" fill="#FFDE66"/>
<ellipse cx="2" cy="3.33333" rx="2" ry="3.33333" transform="matrix(0.92388 -0.382683 0.382552 0.923934 272.658 894.302)" fill="#FFF9E6"/>
<ellipse cx="2" cy="3.33333" rx="2" ry="3.33333" transform="matrix(-0.382683 -0.92388 0.923934 -0.382552 278.693 901.904)" fill="#FFF9E6"/>
<ellipse cx="2" cy="3.33333" rx="2" ry="3.33333" transform="matrix(-0.382683 -0.92388 0.923934 -0.382552 271.302 904.966)" fill="#FFF9E6"/>
<ellipse cx="2" cy="3.33333" rx="2" ry="3.33333" transform="matrix(0.92388 -0.382683 0.382552 0.923934 275.72 901.693)" fill="#FFF9E6"/>
<circle cx="277.312" cy="900.312" r="2.66667" transform="rotate(-22.5 277.312 900.312)" fill="#FFC800"/>
<path d="M1212.8 941H1119C1101.91 941 1099.6 924.619 1109.67 919.5C1112.16 902.435 1128.02 905.771 1133.04 909.032C1140.47 889.1 1154.03 894.432 1160.78 899.589C1171.2 880.591 1188.67 888.137 1193.95 899.589C1207.3 897 1217.8 901 1212.8 918C1228.29 919 1226.29 941 1212.8 941Z" fill="#4B8D3F"/>
<path d="M814.561 839H908.357C925.444 839 927.763 822.619 917.687 817.5C915.196 800.435 899.337 803.771 894.317 807.032C886.89 787.1 873.334 792.432 866.578 797.589C856.162 778.591 838.688 786.137 833.405 797.589C820.058 795 809.564 799 814.561 816C799.07 817 801.069 839 814.561 839Z" fill="#386A2F"/>
<ellipse cx="3.75" cy="6.25" rx="3.75" ry="6.25" transform="matrix(0.382683 -0.92388 0.926097 0.377287 1209 909.822)" fill="#FFDE66"/>
<ellipse cx="3.75" cy="6.25" rx="3.75" ry="6.25" transform="matrix(0.382683 -0.92388 0.926097 0.377287 1194.3 903.733)" fill="#FFDE66"/>
<ellipse cx="3.75" cy="6.25" rx="3.75" ry="6.25" transform="matrix(0.92388 0.382683 -0.377287 0.926097 1204.69 905.864)" fill="#FFDE66"/>
<ellipse cx="3.75" cy="6.25" rx="3.75" ry="6.25" transform="matrix(0.92388 0.382683 -0.377287 0.926097 1210.78 891.166)" fill="#FFDE66"/>
<ellipse cx="3.75" cy="6.25" rx="3.75" ry="6.25" transform="matrix(0.92388 -0.382683 0.382552 0.923934 1199.87 894.329)" fill="#FFF9E6"/>
<ellipse cx="3.75" cy="6.25" rx="3.75" ry="6.25" transform="matrix(-0.382683 -0.92388 0.923934 -0.382552 1211.19 908.585)" fill="#FFF9E6"/>
<ellipse cx="3.75" cy="6.25" rx="3.75" ry="6.25" transform="matrix(-0.382683 -0.92388 0.923934 -0.382552 1197.33 914.325)" fill="#FFF9E6"/>
<ellipse cx="3.75" cy="6.25" rx="3.75" ry="6.25" transform="matrix(0.92388 -0.382683 0.382552 0.923934 1205.61 908.188)" fill="#FFF9E6"/>
<circle cx="1208.6" cy="905.598" r="5" transform="rotate(-22.5 1208.6 905.598)" fill="#FFC800"/>
<ellipse cx="2.25" cy="3.75" rx="2.25" ry="3.75" transform="matrix(0.382683 -0.92388 0.926096 0.377287 1141.64 919.641)" fill="#FFDE66"/>
<ellipse cx="2.25" cy="3.75" rx="2.25" ry="3.75" transform="matrix(0.382683 -0.92388 0.926097 0.377287 1132.82 915.988)" fill="#FFDE66"/>
<ellipse cx="2.25" cy="3.75" rx="2.25" ry="3.75" transform="matrix(0.92388 0.382683 -0.377287 0.926097 1139.06 917.267)" fill="#FFDE66"/>
<ellipse cx="2.25" cy="3.75" rx="2.25" ry="3.75" transform="matrix(0.92388 0.382683 -0.377287 0.926097 1142.71 908.448)" fill="#FFDE66"/>
<ellipse cx="2.25" cy="3.75" rx="2.25" ry="3.75" transform="matrix(0.92388 -0.382683 0.382552 0.923934 1136.17 910.346)" fill="#FFF9E6"/>
<ellipse cx="2.25" cy="3.75" rx="2.25" ry="3.75" transform="matrix(-0.382683 -0.92388 0.923934 -0.382552 1142.96 918.899)" fill="#FFF9E6"/>
<ellipse cx="2.25" cy="3.75" rx="2.25" ry="3.75" transform="matrix(-0.382683 -0.92388 0.923934 -0.382552 1134.64 922.343)" fill="#FFF9E6"/>
<ellipse cx="2.25" cy="3.75" rx="2.25" ry="3.75" transform="matrix(0.92388 -0.382683 0.382552 0.923934 1139.61 918.661)" fill="#FFF9E6"/>
<circle cx="1141.4" cy="917.107" r="3" transform="rotate(-22.5 1141.4 917.107)" fill="#FFC800"/>
<ellipse cx="1.5" cy="2.5" rx="1.5" ry="2.5" transform="matrix(0.382684 -0.92388 0.926096 0.377287 831.643 806.173)" fill="#FFDE66"/>
<ellipse cx="1.5" cy="2.5" rx="1.5" ry="2.5" transform="matrix(0.382683 -0.92388 0.926097 0.377287 825.763 803.737)" fill="#FFDE66"/>
<ellipse cx="1.5" cy="2.5" rx="1.5" ry="2.5" transform="matrix(0.92388 0.382683 -0.377287 0.926097 829.921 804.59)" fill="#FFDE66"/>
<ellipse cx="1.5" cy="2.5" rx="1.5" ry="2.5" transform="matrix(0.92388 0.382683 -0.377287 0.926096 832.355 798.711)" fill="#FFDE66"/>
<ellipse cx="1.5" cy="2.5" rx="1.5" ry="2.5" transform="matrix(0.92388 -0.382683 0.382552 0.923934 827.994 799.976)" fill="#FFF9E6"/>
<ellipse cx="1.5" cy="2.5" rx="1.5" ry="2.5" transform="matrix(-0.382683 -0.92388 0.923934 -0.382552 832.52 805.678)" fill="#FFF9E6"/>
<ellipse cx="1.5" cy="2.5" rx="1.5" ry="2.5" transform="matrix(-0.382683 -0.92388 0.923934 -0.382552 826.977 807.974)" fill="#FFF9E6"/>
<ellipse cx="1.5" cy="2.5" rx="1.5" ry="2.5" transform="matrix(0.92388 -0.382683 0.382552 0.923934 830.29 805.519)" fill="#FFF9E6"/>
<circle cx="831.484" cy="804.484" r="2" transform="rotate(-22.5 831.484 804.484)" fill="#FFC800"/>
<ellipse cx="1.5" cy="2.5" rx="1.5" ry="2.5" transform="matrix(0.382684 -0.92388 0.926096 0.377287 893.643 810.173)" fill="#FFDE66"/>
<ellipse cx="1.5" cy="2.5" rx="1.5" ry="2.5" transform="matrix(0.382683 -0.92388 0.926097 0.377287 887.763 807.737)" fill="#FFDE66"/>
<ellipse cx="1.5" cy="2.5" rx="1.5" ry="2.5" transform="matrix(0.92388 0.382683 -0.377287 0.926097 891.921 808.59)" fill="#FFDE66"/>
<ellipse cx="1.5" cy="2.5" rx="1.5" ry="2.5" transform="matrix(0.92388 0.382683 -0.377287 0.926096 894.355 802.711)" fill="#FFDE66"/>
<ellipse cx="1.5" cy="2.5" rx="1.5" ry="2.5" transform="matrix(0.92388 -0.382683 0.382552 0.923934 889.994 803.976)" fill="#FFF9E6"/>
<ellipse cx="1.5" cy="2.5" rx="1.5" ry="2.5" transform="matrix(-0.382683 -0.92388 0.923934 -0.382552 894.52 809.678)" fill="#FFF9E6"/>
<ellipse cx="1.5" cy="2.5" rx="1.5" ry="2.5" transform="matrix(-0.382683 -0.92388 0.923934 -0.382552 888.977 811.974)" fill="#FFF9E6"/>
<ellipse cx="1.5" cy="2.5" rx="1.5" ry="2.5" transform="matrix(0.92388 -0.382683 0.382552 0.923934 892.29 809.519)" fill="#FFF9E6"/>
<circle cx="893.484" cy="808.484" r="2" transform="rotate(-22.5 893.484 808.484)" fill="#FFC800"/>
</g>
</g>
</g>
<defs>
<clipPath id="clip0_275_900">
<rect width="1366" height="1024" fill="white"/>
</clipPath>
<clipPath id="clip1_275_900">
<rect width="1366" height="1024" fill="white"/>
</clipPath>
<clipPath id="clip2_275_900">
<rect width="1366" height="1024" fill="white"/>
</clipPath>
</defs>
</svg>
